<mxfile host="Electron" agent="Mozilla/5.0 (Windows NT 10.0; Win64; x64) AppleWebKit/537.36 (KHTML, like Gecko) draw.io/27.0.5 Chrome/134.0.6998.205 Electron/35.3.0 Safari/537.36" version="27.0.5">
  <diagram name="Page-1" id="exLrFLnVieo8RKwAvluM">
    <mxGraphModel dx="2946" dy="1201" grid="1" gridSize="10" guides="1" tooltips="1" connect="1" arrows="1" fold="1" page="1" pageScale="1" pageWidth="850" pageHeight="1100" math="0" shadow="0">
      <root>
        <mxCell id="0" />
        <mxCell id="1" parent="0" />
        <mxCell id="M4-LuppGwV5e_20ye7Dt-2" value="" style="ellipse;whiteSpace=wrap;html=1;aspect=fixed;" vertex="1" parent="1">
          <mxGeometry x="25" y="60" width="810" height="810" as="geometry" />
        </mxCell>
        <mxCell id="M4-LuppGwV5e_20ye7Dt-1" value="" style="shape=hexagon;perimeter=hexagonPerimeter2;whiteSpace=wrap;html=1;fixedSize=1;fillColor=#FFD966;" vertex="1" parent="1">
          <mxGeometry x="345" y="120" width="160" height="100" as="geometry" />
        </mxCell>
        <mxCell id="M4-LuppGwV5e_20ye7Dt-3" value="" style="shape=hexagon;perimeter=hexagonPerimeter2;whiteSpace=wrap;html=1;fixedSize=1;fillColor=#66FF66;" vertex="1" parent="1">
          <mxGeometry x="120" y="270" width="170" height="100" as="geometry" />
        </mxCell>
        <mxCell id="M4-LuppGwV5e_20ye7Dt-4" value="" style="shape=hexagon;perimeter=hexagonPerimeter2;whiteSpace=wrap;html=1;fixedSize=1;fillColor=#3333FF;" vertex="1" parent="1">
          <mxGeometry x="560" y="270" width="170" height="110" as="geometry" />
        </mxCell>
        <mxCell id="M4-LuppGwV5e_20ye7Dt-5" value="" style="shape=hexagon;perimeter=hexagonPerimeter2;whiteSpace=wrap;html=1;fixedSize=1;fillColor=#994C00;" vertex="1" parent="1">
          <mxGeometry x="350" y="700" width="160" height="100" as="geometry" />
        </mxCell>
        <mxCell id="M4-LuppGwV5e_20ye7Dt-6" value="" style="shape=hexagon;perimeter=hexagonPerimeter2;whiteSpace=wrap;html=1;fixedSize=1;fillColor=#FF66FF;" vertex="1" parent="1">
          <mxGeometry x="120" y="500" width="170" height="100" as="geometry" />
        </mxCell>
        <mxCell id="M4-LuppGwV5e_20ye7Dt-7" value="" style="shape=hexagon;perimeter=hexagonPerimeter2;whiteSpace=wrap;html=1;fixedSize=1;fillColor=#CCCC00;" vertex="1" parent="1">
          <mxGeometry x="560" y="505" width="170" height="110" as="geometry" />
        </mxCell>
        <mxCell id="M4-LuppGwV5e_20ye7Dt-8" value="&lt;b&gt;Business&amp;nbsp;&lt;/b&gt;&lt;div&gt;&lt;b&gt;Understanding&lt;/b&gt;&lt;/div&gt;" style="text;html=1;align=center;verticalAlign=middle;whiteSpace=wrap;rounded=0;" vertex="1" parent="1">
          <mxGeometry x="395" y="155" width="60" height="30" as="geometry" />
        </mxCell>
        <mxCell id="M4-LuppGwV5e_20ye7Dt-9" value="&lt;b&gt;Deployment&lt;/b&gt;" style="text;html=1;align=center;verticalAlign=middle;whiteSpace=wrap;rounded=0;" vertex="1" parent="1">
          <mxGeometry x="175" y="310" width="60" height="30" as="geometry" />
        </mxCell>
        <mxCell id="M4-LuppGwV5e_20ye7Dt-10" value="&lt;b&gt;Evaluation&lt;/b&gt;" style="text;html=1;align=center;verticalAlign=middle;whiteSpace=wrap;rounded=0;" vertex="1" parent="1">
          <mxGeometry x="175" y="545" width="60" height="30" as="geometry" />
        </mxCell>
        <mxCell id="M4-LuppGwV5e_20ye7Dt-11" value="&lt;b&gt;Modeling&lt;/b&gt;" style="text;html=1;align=center;verticalAlign=middle;whiteSpace=wrap;rounded=0;" vertex="1" parent="1">
          <mxGeometry x="400" y="735" width="60" height="30" as="geometry" />
        </mxCell>
        <mxCell id="M4-LuppGwV5e_20ye7Dt-12" value="&lt;b&gt;Data&amp;nbsp;&lt;/b&gt;&lt;div&gt;&lt;b&gt;Preparation&lt;/b&gt;&lt;/div&gt;" style="text;html=1;align=center;verticalAlign=middle;whiteSpace=wrap;rounded=0;" vertex="1" parent="1">
          <mxGeometry x="615" y="550" width="60" height="30" as="geometry" />
        </mxCell>
        <mxCell id="M4-LuppGwV5e_20ye7Dt-13" value="&lt;b&gt;Data&lt;/b&gt;&lt;div&gt;&lt;b&gt;Understanding&lt;/b&gt;&lt;/div&gt;" style="text;html=1;align=center;verticalAlign=middle;whiteSpace=wrap;rounded=0;" vertex="1" parent="1">
          <mxGeometry x="620" y="310" width="60" height="30" as="geometry" />
        </mxCell>
        <mxCell id="M4-LuppGwV5e_20ye7Dt-14" value="" style="shape=flexArrow;endArrow=classic;startArrow=classic;html=1;rounded=0;fillColor=#000000;" edge="1" parent="1">
          <mxGeometry width="100" height="100" relative="1" as="geometry">
            <mxPoint x="500" y="230" as="sourcePoint" />
            <mxPoint x="560" y="270" as="targetPoint" />
          </mxGeometry>
        </mxCell>
        <mxCell id="M4-LuppGwV5e_20ye7Dt-15" value="" style="shape=flexArrow;endArrow=classic;startArrow=classic;html=1;rounded=0;fillColor=#000000;" edge="1" parent="1">
          <mxGeometry width="100" height="100" relative="1" as="geometry">
            <mxPoint x="649.5" y="390" as="sourcePoint" />
            <mxPoint x="649.5" y="490" as="targetPoint" />
          </mxGeometry>
        </mxCell>
        <mxCell id="M4-LuppGwV5e_20ye7Dt-18" value="" style="shape=flexArrow;endArrow=classic;html=1;rounded=0;fillColor=#000000;" edge="1" parent="1">
          <mxGeometry width="50" height="50" relative="1" as="geometry">
            <mxPoint x="600" y="650" as="sourcePoint" />
            <mxPoint x="550" y="700" as="targetPoint" />
            <Array as="points">
              <mxPoint x="570" y="680" />
            </Array>
          </mxGeometry>
        </mxCell>
        <mxCell id="M4-LuppGwV5e_20ye7Dt-19" value="" style="shape=flexArrow;endArrow=classic;html=1;rounded=0;fillColor=#000000;" edge="1" parent="1">
          <mxGeometry width="50" height="50" relative="1" as="geometry">
            <mxPoint x="340" y="710" as="sourcePoint" />
            <mxPoint x="260" y="640" as="targetPoint" />
          </mxGeometry>
        </mxCell>
        <mxCell id="M4-LuppGwV5e_20ye7Dt-20" value="" style="shape=flexArrow;endArrow=classic;html=1;rounded=0;fillColor=#000000;" edge="1" parent="1">
          <mxGeometry width="50" height="50" relative="1" as="geometry">
            <mxPoint x="207" y="480" as="sourcePoint" />
            <mxPoint x="207" y="400" as="targetPoint" />
          </mxGeometry>
        </mxCell>
        <mxCell id="M4-LuppGwV5e_20ye7Dt-21" value="" style="shape=flexArrow;endArrow=classic;html=1;rounded=0;fillColor=#000000;" edge="1" parent="1">
          <mxGeometry width="50" height="50" relative="1" as="geometry">
            <mxPoint x="280" y="500" as="sourcePoint" />
            <mxPoint x="360" y="260" as="targetPoint" />
          </mxGeometry>
        </mxCell>
        <mxCell id="M4-LuppGwV5e_20ye7Dt-22" value="" style="rounded=1;whiteSpace=wrap;html=1;" vertex="1" parent="1">
          <mxGeometry x="330" y="465" width="190" height="115" as="geometry" />
        </mxCell>
        <mxCell id="M4-LuppGwV5e_20ye7Dt-23" value="" style="shape=link;html=1;rounded=0;fillColor=#000000;" edge="1" parent="1">
          <mxGeometry width="100" relative="1" as="geometry">
            <mxPoint x="375" y="500" as="sourcePoint" />
            <mxPoint x="475" y="500" as="targetPoint" />
          </mxGeometry>
        </mxCell>
        <mxCell id="M4-LuppGwV5e_20ye7Dt-24" value="" style="shape=link;html=1;rounded=0;" edge="1" parent="1">
          <mxGeometry width="100" relative="1" as="geometry">
            <mxPoint x="375" y="522" as="sourcePoint" />
            <mxPoint x="475" y="522" as="targetPoint" />
          </mxGeometry>
        </mxCell>
        <mxCell id="M4-LuppGwV5e_20ye7Dt-25" value="" style="shape=link;html=1;rounded=0;" edge="1" parent="1">
          <mxGeometry width="100" relative="1" as="geometry">
            <mxPoint x="375" y="550" as="sourcePoint" />
            <mxPoint x="475" y="550" as="targetPoint" />
          </mxGeometry>
        </mxCell>
        <mxCell id="M4-LuppGwV5e_20ye7Dt-26" value="&lt;b&gt;&lt;font style=&quot;font-size: 18px;&quot;&gt;Data&lt;/font&gt;&lt;/b&gt;" style="text;html=1;align=center;verticalAlign=middle;whiteSpace=wrap;rounded=0;" vertex="1" parent="1">
          <mxGeometry x="400" y="430" width="60" height="30" as="geometry" />
        </mxCell>
      </root>
    </mxGraphModel>
  </diagram>
</mxfile>
